<svg width="160" height="25" viewBox="0 0 160 25" fill="none" xmlns="http://www.w3.org/2000/svg">
<path d="M151.289 20.2206C148.914 20.2206 146.208 19.6908 144.526 19.215C144.462 19.4961 143.646 23.3077 143.598 23.5456C145.743 24.4539 148.578 25 151.209 25C158.596 25 160 22.5616 160 18.0634C160 14.1004 159.69 12.673 153.664 11.5863C150.019 10.9267 149.645 10.6942 149.645 9.08845C149.645 7.67734 150.323 7.42323 152.239 7.42323C154.177 7.42323 156.429 7.67733 158.74 8.15311C158.778 7.87197 159.359 3.78461 159.397 3.53591C157.299 2.96281 154.15 2.64922 152.196 2.64922C146.245 2.64922 143.822 4.44961 143.822 8.87219C143.822 12.5865 144.233 14.9167 149.901 15.8467C153.824 16.4792 154.166 16.8307 154.166 18.3445C154.171 19.8043 153.525 20.2206 151.289 20.2206ZM92.2498 3.07093H86.4211V24.5729H92.2498V3.07093ZM46.3784 24.9946C49.218 24.9946 52.2658 24.5837 54.9666 23.8484V13.2677H49.7198C49.7198 13.5597 49.7198 19.7881 49.7198 19.7881L49.5863 19.8043C48.4548 19.9449 47.4299 20.0151 46.3784 20.0151C44.2754 20.0151 43.336 19.1825 43.336 17.3065V10.3049C43.336 8.4721 44.222 7.72059 46.3784 7.72059C48.4174 7.72059 51.5185 8.02876 53.8297 8.29368C53.8617 8.01254 54.3475 3.64943 54.3742 3.38992C51.6306 2.89792 49.0152 2.65463 46.3784 2.65463C40.411 2.65463 37.502 4.83888 37.502 9.34256V18.2688C37.502 22.7995 40.411 24.9946 46.3784 24.9946ZM33.1091 3.07093H27.2805V24.5729H33.1091V3.07093ZM73.1305 24.7783H78.6389V4.94701H84.5637V0H67.2004V4.94701H73.1305V24.7783ZM0.523083 15.0141C0.875365 15.0843 4.24339 15.5385 4.24339 15.5385L4.6704 18.1661H9.27141V13.2191C9.27141 13.2191 0.768613 13.2191 0.523083 13.2191C0.277553 13.2191 0 13.3867 0 14.0895C0.0053376 14.7978 0.160126 14.9492 0.523083 15.0141ZM4.6704 24.7783H14.9079C20.9341 24.7783 23.1759 21.6533 23.1759 18.3445V6.43923C23.1759 3.09256 20.9341 0 14.9079 0H0.523083C0.277553 0 0 0.162206 0 0.870467C0 1.57332 0.160126 1.7247 0.523083 1.79499C0.875365 1.85987 4.24339 2.31943 4.24339 2.31943L4.6704 4.94162H14.2461C17.0003 4.94162 17.6675 6.02293 17.6675 7.95848V16.809C17.6675 18.7446 17.0056 19.8259 14.2461 19.8259H0.523083C0.277553 19.8259 0 19.9935 0 20.6964C0 21.4046 0.160126 21.556 0.523083 21.6209C0.875365 21.6912 4.24339 22.1507 4.24339 22.1507L4.6704 24.7783ZM4.24339 8.93707L4.6704 11.5593H9.27141V6.61764C9.27141 6.61764 0.768613 6.61764 0.523083 6.61764C0.277553 6.61764 0 6.77985 0 7.48811C0 8.19097 0.160126 8.34775 0.523083 8.41263C0.875365 8.47751 4.24339 8.93707 4.24339 8.93707ZM115.201 14.0247C115.201 14.0247 115.596 24.2918 115.607 24.5729H121.222C121.212 24.2647 120.139 3.35207 120.128 3.07093H114.444C114.369 3.25475 109.005 16.0575 109.005 16.0575C109.005 16.0575 103.64 3.25475 103.56 3.07093H97.881C97.8649 3.35207 96.7974 24.2647 96.7761 24.5729H102.402C102.413 24.2918 102.802 14.0679 102.802 14.0679L103.096 14.0084C103.096 14.0084 106.416 21.7074 106.491 21.8858H111.519C111.588 21.7074 114.919 13.9706 114.919 13.9706L115.201 14.0247ZM140.427 19.934C140.133 19.934 130.985 19.934 130.985 19.934V15.9818C130.985 15.9818 139.386 15.9818 139.68 15.9818V11.3322C139.386 11.3322 130.985 11.3322 130.985 11.3322V7.72059C130.985 7.72059 140.139 7.72059 140.427 7.72059V3.07634H125.161V24.5783H140.427V19.934ZM65.0547 3.07093H59.2314V24.5729H65.0547V3.07093Z" fill="white"/>
</svg>
